<?xml version="1.0" encoding="utf-8"?>
<!-- Generator: Adobe Illustrator 15.0.0, SVG Export Plug-In  -->
<!DOCTYPE svg PUBLIC "-//W3C//DTD SVG 1.1//EN" "http://www.w3.org/Graphics/SVG/1.1/DTD/svg11.dtd" [
	<!ENTITY ns_flows "http://ns.adobe.com/Flows/1.0/">
]>
<svg version="1.1"
	 xmlns="http://www.w3.org/2000/svg" xmlns:xlink="http://www.w3.org/1999/xlink" xmlns:a="http://ns.adobe.com/AdobeSVGViewerExtensions/3.0/"
	 x="0px" y="0px" width="210px" height="197px" viewBox="-30.2382813 -30 210 197" enable-background="new -30.2382813 -30 210 197"
	 xml:space="preserve">
<defs>
</defs>
<polygon fill-rule="evenodd" clip-rule="evenodd" fill="#FFFFFF" points="74.7617188,0 124.7617188,50 74.7617188,100 
	24.7617188,50 74.7617188,0 "/>
<path fill-rule="evenodd" clip-rule="evenodd" fill="#C60078" d="M78.6367188,31l5.625,45l-9.5,9.5l-9.5-9.5l5.625-45H78.6367188
	L78.6367188,31L78.6367188,31z M69.9492188,29l-4.6875-10h19l-4.6875,10H69.9492188L69.9492188,29L69.9492188,29z
	 M79.9042969,59.1425781L74.7617188,54l-5.1425781,5.1425781l-0.4287109,3.4277344L74.7617188,57l5.5712891,5.5703125
	L79.9042969,59.1425781L79.9042969,59.1425781L79.9042969,59.1425781z M79.0478516,52.2861328L74.7617188,48l-4.2851563,4.2861328
	l-0.4296875,3.4267578L74.7617188,51l4.7138672,4.7128906L79.0478516,52.2861328L79.0478516,52.2861328L79.0478516,52.2861328z"/>
<path fill="#FFFFFF" d="M0,115.0214844h4.8994141l5.4296875,8.7324219l5.4296875-8.7324219h4.8964844v20.65625h-4.5136719
	v-13.4863281l-5.8125,8.8242188h-0.1201172l-5.7519531-8.7363281v13.3984375H0V115.0214844z"/>
<path fill="#FFFFFF" d="M32.7080078,114.875h4.1894531l8.8535156,20.8027344h-4.75l-1.8876953-4.6328125h-8.7363281
	l-1.8886719,4.6328125h-4.6318359L32.7080078,114.875z M37.4882813,127.03125l-2.7431641-6.6972656l-2.7441406,6.6972656H37.4882813
	z"/>
<path fill="#FFFFFF" d="M51.1025391,119.2109375h-6.2861328v-4.1894531h17.1171875v4.1894531h-6.2861328v16.4667969h-4.5449219
	V119.2109375z"/>
<path fill="#FFFFFF" d="M65.4248047,115.0214844h4.5429688v8.1738281h8.3798828v-8.1738281h4.546875v20.65625h-4.546875v-8.2929688
	h-8.3798828v8.2929688h-4.5429688V115.0214844z"/>
<path fill="#FFFFFF" d="M86.4453125,132.6660156l2.6865234-3.2148438c1.859375,1.5332031,3.8046875,2.5097656,6.1669922,2.5097656
	c1.8574219,0,2.9814453-0.7382813,2.9814453-1.9492188v-0.0605469c0-1.1503906-0.7109375-1.7402344-4.1611328-2.6269531
	c-4.1611328-1.0605469-6.8476563-2.2109375-6.8476563-6.3125v-0.0585938c0-3.7480469,3.0107422-6.2265625,7.2324219-6.2265625
	c3.0078125,0,5.5742188,0.9433594,7.6689453,2.625l-2.359375,3.4238281
	c-1.8310547-1.2675781-3.6279297-2.0351563-5.3701172-2.0351563s-2.6552734,0.7949219-2.6552734,1.8007813v0.0566406
	c0,1.3574219,0.8847656,1.7988281,4.4550781,2.7148438c4.1904297,1.09375,6.5498047,2.5976563,6.5498047,6.1972656v0.0585938
	c0,4.1015625-3.1279297,6.4042969-7.5830078,6.4042969C92.0820313,135.9726563,88.9248047,134.8789063,86.4453125,132.6660156z"/>
<path fill="#FFFFFF" d="M105.84375,125.4082031v-0.0585938c0-5.8710938,4.6328125-10.6816406,11.0048828-10.6816406
	c6.3740234,0,10.9482422,4.75,10.9482422,10.6230469v0.0585938c0,5.8730469-4.6347656,10.6796875-11.0058594,10.6796875
	C110.4160156,136.0292969,105.84375,131.2792969,105.84375,125.4082031z M123.0449219,125.4082031v-0.0585938
	c0-3.5410156-2.5947266-6.4921875-6.2539063-6.4921875c-3.6601563,0-6.1992188,2.890625-6.1992188,6.4335938v0.0585938
	c0,3.5390625,2.5996094,6.4902344,6.2568359,6.4902344C120.5078125,131.8398438,123.0449219,128.9492188,123.0449219,125.4082031z"
	/>
<path fill="#FFFFFF" d="M130.9375,125.4082031v-0.0585938c0-5.8710938,4.4257813-10.6816406,10.7714844-10.6816406
	c3.8945313,0,6.2255859,1.296875,8.1425781,3.1855469l-2.890625,3.3359375
	c-1.5957031-1.4472656-3.2177734-2.3320313-5.2832031-2.3320313c-3.4814453,0-5.9902344,2.890625-5.9902344,6.4335938v0.0585938
	c0,3.5390625,2.4501953,6.4902344,5.9902344,6.4902344c2.3613281,0,3.8076172-0.9433594,5.4296875-2.4199219L150,132.3417969
	c-2.1259766,2.2734375-4.4853516,3.6875-8.46875,3.6875C135.4521484,136.0292969,130.9375,131.3398438,130.9375,125.4082031z"/>
</svg>
