<?xml version="1.0" encoding="utf-8"?>
<!-- Generator: Adobe Illustrator 15.0.0, SVG Export Plug-In  -->
<!DOCTYPE svg [
	<!ENTITY ns_flows "http://ns.adobe.com/Flows/1.0/">
]>
<svg version="1.2" baseProfile="tiny"
	 xmlns="http://www.w3.org/2000/svg" xmlns:xlink="http://www.w3.org/1999/xlink" xmlns:a="http://ns.adobe.com/AdobeSVGViewerExtensions/3.0/"
	 x="0px" y="0px" width="548px" height="160px" viewBox="-30 -30 548 160" xml:space="preserve">
<defs>
</defs>
<path fill="#C60078" d="M125,9.0048828h4.3984375V29H125V9.0048828z"/>
<path fill="#C60078" d="M135.5429688,9.0048828h4.0556641l9.3691406,12.3115234V9.0048828h4.3417969V29h-3.7412109
	l-9.6835938-12.7109375V29h-4.3417969V9.0048828z"/>
<path fill="#C60078" d="M175.8261719,8.8623047h4.0556641L188.4521484,29h-4.5996094l-1.828125-4.484375h-8.4550781L171.7412109,29
	h-4.484375L175.8261719,8.8623047z M180.4541016,20.6308594l-2.6572266-6.484375l-2.65625,6.484375H180.4541016z"/>
<path fill="#C60078" d="M191.0283203,26.0859375l2.5996094-3.1132813c1.7988281,1.4853516,3.6845703,2.4277344,5.9697266,2.4277344
	c1.7998047,0,2.8847656-0.7138672,2.8847656-1.8847656v-0.0566406c0-1.1142578-0.6855469-1.6855469-4.0273438-2.5429688
	c-4.0273438-1.0283203-6.6269531-2.1425781-6.6269531-6.1123047v-0.0576172c0-3.6269531,2.9130859-6.0273438,6.9980469-6.0273438
	c2.9140625,0,5.3994141,0.9140625,7.4267578,2.5429688l-2.2851563,3.3134766
	c-1.7705078-1.2285156-3.5136719-1.9716797-5.1982422-1.9716797c-1.6855469,0-2.5712891,0.7714844-2.5712891,1.7431641v0.0566406
	c0,1.3144531,0.8574219,1.7431641,4.3134766,2.6279297c4.0556641,1.0566406,6.3408203,2.5136719,6.3408203,5.9990234v0.0566406
	c0,3.9707031-3.0273438,6.1982422-7.3408203,6.1982422C196.484375,29.2851563,193.4277344,28.2285156,191.0283203,26.0859375z"/>
<path fill="#C60078" d="M210.171875,26.0859375l2.5996094-3.1132813c1.7998047,1.4853516,3.6845703,2.4277344,5.9697266,2.4277344
	c1.7998047,0,2.8847656-0.7138672,2.8847656-1.8847656v-0.0566406c0-1.1142578-0.6855469-1.6855469-4.0273438-2.5429688
	c-4.0273438-1.0283203-6.6269531-2.1425781-6.6269531-6.1123047v-0.0576172c0-3.6269531,2.9140625-6.0273438,6.9980469-6.0273438
	c2.9140625,0,5.3984375,0.9140625,7.4267578,2.5429688l-2.2851563,3.3134766
	c-1.7705078-1.2285156-3.5126953-1.9716797-5.1982422-1.9716797s-2.5712891,0.7714844-2.5712891,1.7431641v0.0566406
	c0,1.3144531,0.8574219,1.7431641,4.3134766,2.6279297c4.0566406,1.0566406,6.3417969,2.5136719,6.3417969,5.9990234v0.0566406
	c0,3.9707031-3.0283203,6.1982422-7.3417969,6.1982422C215.6279297,29.2851563,212.5712891,28.2285156,210.171875,26.0859375z"/>
<path fill="#C60078" d="M230.0859375,19.0595703v-0.0576172c0-5.6835938,4.4853516-10.3398438,10.6552734-10.3398438
	s10.5966797,4.5986328,10.5966797,10.2832031v0.0566406c0,5.6845703-4.484375,10.3408203-10.6542969,10.3408203
	S230.0859375,24.7441406,230.0859375,19.0595703z M246.7392578,19.0595703v-0.0576172
	c0-3.4277344-2.5136719-6.2832031-6.0556641-6.2832031s-5.9990234,2.7988281-5.9990234,6.2265625v0.0566406
	c0,3.4277344,2.5136719,6.2851563,6.0566406,6.2851563C244.2822266,25.2871094,246.7392578,22.4873047,246.7392578,19.0595703z"/>
<path fill="#C60078" d="M255.5146484,19.0595703v-0.0576172c0-5.6835938,4.2851563-10.3398438,10.4257813-10.3398438
	c3.7714844,0,6.0273438,1.2568359,7.8847656,3.0849609l-2.7998047,3.2275391
	c-1.5419922-1.3994141-3.1132813-2.2558594-5.1132813-2.2558594c-3.3701172,0-5.7978516,2.7988281-5.7978516,6.2265625v0.0566406
	c0,3.4277344,2.3701172,6.2851563,5.7978516,6.2851563c2.2851563,0,3.6845703-0.9140625,5.2558594-2.3427734l2.7998047,2.828125
	c-2.0566406,2.1992188-4.3417969,3.5703125-8.1982422,3.5703125
	C259.8857422,29.3427734,255.5146484,24.8007813,255.5146484,19.0595703z"/>
<path fill="#C60078" d="M278.8291016,9.0048828h4.3984375V29h-4.3984375V9.0048828z"/>
<path fill="#C60078" d="M296.2265625,8.8623047h4.0556641L308.8525391,29h-4.5996094l-1.828125-4.484375h-8.4550781L292.1416016,29
	h-4.484375L296.2265625,8.8623047z M300.8544922,20.6308594l-2.6572266-6.484375l-2.65625,6.484375H300.8544922z"/>
<path fill="#C60078" d="M315.1708984,13.0605469h-6.0839844V9.0048828h16.5664063v4.0556641h-6.0839844V29h-4.3984375V13.0605469z"
	/>
<path fill="#C60078" d="M330.3720703,9.0048828h4.3984375V29h-4.3984375V9.0048828z"/>
<path fill="#C60078" d="M340.0292969,19.0595703v-0.0576172c0-5.6835938,4.4853516-10.3398438,10.6552734-10.3398438
	S361.28125,13.2607422,361.28125,18.9453125v0.0566406c0,5.6845703-4.484375,10.3408203-10.6542969,10.3408203
	S340.0292969,24.7441406,340.0292969,19.0595703z M356.6826172,19.0595703v-0.0576172
	c0-3.4277344-2.5136719-6.2832031-6.0556641-6.2832031s-5.9990234,2.7988281-5.9990234,6.2265625v0.0566406
	c0,3.4277344,2.5136719,6.2851563,6.0566406,6.2851563C354.2255859,25.2871094,356.6826172,22.4873047,356.6826172,19.0595703z"/>
<path fill="#C60078" d="M366.3427734,9.0048828h4.0566406l9.3691406,12.3115234V9.0048828h4.3417969V29h-3.7421875
	l-9.6835938-12.7109375V29h-4.3417969V9.0048828z"/>
<path fill="#C60078" d="M398.2294922,9.0048828h4.7128906l4.1416016,13.5400391l4.484375-13.5976563h3.7705078l4.484375,13.5976563
	l4.1425781-13.5400391h4.5986328l-6.8271484,20.1376953h-3.8271484l-4.5136719-13.0820313l-4.5126953,13.0820313h-3.828125
	L398.2294922,9.0048828z"/>
<path fill="#C60078" d="M433.171875,9.0048828h4.3984375V29h-4.3984375V9.0048828z"/>
<path fill="#C60078" d="M448.3710938,13.0605469h-6.0849609V9.0048828h16.5683594v4.0556641h-6.0849609V29h-4.3984375V13.0605469z"
	/>
<path fill="#C60078" d="M463.3720703,9.0048828h4.3984375v7.9121094h8.1132813V9.0048828h4.3984375V29h-4.3984375v-8.0263672
	h-8.1132813V29h-4.3984375V9.0048828z"/>
<polygon fill-rule="evenodd" fill="#C60078" points="50,0 100,50 50,100 0,50 50,0 "/>
<path fill-rule="evenodd" fill="#FFFFFF" d="M53.875,30.9990234l5.625,45l-9.5,9.5l-9.5-9.5l5.625-45H53.875L53.875,30.9990234
	L53.875,30.9990234z M45.1875,28.9990234l-4.6875-10h19l-4.6875,10H45.1875L45.1875,28.9990234L45.1875,28.9990234z
	 M55.1425781,59.1416016L50,53.9990234l-5.1425781,5.1425781l-0.4287109,3.4296875L50,56.9990234l5.5712891,5.5722656
	L55.1425781,59.1416016L55.1425781,59.1416016L55.1425781,59.1416016z M54.2861328,52.2861328L50,47.9990234l-4.2851563,4.2871094
	l-0.4296875,3.4277344L50,50.9990234l4.7138672,4.7148438L54.2861328,52.2861328L54.2861328,52.2861328L54.2861328,52.2861328z"/>
<path fill="#C60078" d="M125,40.9990234h11.859375l13.1445313,21.140625l13.1445313-21.140625h11.8544922v50.0019531h-10.9287109
	V58.3544922l-14.0703125,21.3613281h-0.2900391l-13.9248047-21.1464844v32.4316406H125V40.9990234z"/>
<path fill="#C60078" d="M204.1777344,40.6435547h10.1425781l21.4335938,50.3574219h-11.4990234l-4.5712891-11.2128906h-21.1484375
	l-4.5722656,11.2128906H182.75L204.1777344,40.6435547z M215.7509766,70.0732422l-6.6416016-16.2148438l-6.6425781,16.2148438
	H215.7509766z"/>
<path fill="#C60078" d="M248.7070313,51.1416016h-15.2158203V40.9990234h41.4355469v10.1425781h-15.2158203v39.859375h-11.0039063
	V51.1416016z"/>
<path fill="#C60078" d="M283.3779297,40.9990234h10.9980469v19.7851563h20.2871094V40.9990234h11.0048828v50.0019531h-11.0048828
	V70.9287109h-20.2871094v20.0722656h-10.9980469V40.9990234z"/>
<path fill="#C60078" d="M334.2646484,83.7119141l6.5029297-7.78125c4.5009766,3.7109375,9.2119141,6.0722656,14.9296875,6.0722656
	c4.4951172,0,7.2177734-1.7851563,7.2177734-4.7167969v-0.1464844c0-2.7851563-1.7216797-4.2109375-10.0732422-6.3574219
	c-10.0742188-2.5703125-16.5771484-5.3554688-16.5771484-15.2851563v-0.1386719
	c0-9.0722656,7.2880859-15.0761719,17.5078125-15.0761719c7.28125,0,13.4931641,2.2851563,18.5654297,6.3574219
	l-5.7119141,8.2890625c-4.4326172-3.0722656-8.7832031-4.9277344-13-4.9277344s-6.4267578,1.9257813-6.4267578,4.3574219v0.1386719
	c0,3.2871094,2.140625,4.3574219,10.7832031,6.5722656c10.1445313,2.6464844,15.8554688,6.2871094,15.8554688,15v0.1464844
	c0,9.9277344-7.5722656,15.5-18.3564453,15.5C347.9091797,91.7158203,340.2666016,89.0693359,334.2646484,83.7119141z"/>
<path fill="#C60078" d="M381.2246094,66.1416016v-0.1386719c0-14.2148438,11.2138672-25.859375,26.6386719-25.859375
	c15.4316406,0,26.5048828,11.4980469,26.5048828,25.7128906v0.1464844c0,14.2148438-11.2197266,25.8535156-26.6445313,25.8535156
	C392.2929688,91.8564453,381.2246094,80.3564453,381.2246094,66.1416016z M422.8632813,66.1416016v-0.1386719
	c0-8.5742188-6.28125-15.7167969-15.1396484-15.7167969s-15.0058594,6.9980469-15.0058594,15.5703125v0.1464844
	c0,8.5664063,6.2929688,15.7089844,15.1455078,15.7089844C416.7216797,81.7119141,422.8632813,74.7158203,422.8632813,66.1416016z"
	/>
<path fill="#C60078" d="M441.9707031,66.1416016v-0.1386719c0-14.2148438,10.7138672-25.859375,26.0742188-25.859375
	c9.4277344,0,15.0703125,3.140625,19.7109375,7.7109375l-6.9960938,8.0742188
	c-3.8623047-3.5019531-7.7890625-5.6425781-12.7900391-5.6425781c-8.4287109,0-14.5009766,6.9980469-14.5009766,15.5703125
	v0.1464844c0,8.5664063,5.9326172,15.7089844,14.5009766,15.7089844c5.7167969,0,9.2177734-2.2851563,13.1445313-5.8574219
	l7.0019531,7.0722656c-5.1464844,5.5019531-10.8583984,8.9296875-20.5019531,8.9296875
	C452.8994141,91.8564453,441.9707031,80.5029297,441.9707031,66.1416016z"/>
</svg>
