<?xml version="1.0" encoding="utf-8"?>
<!-- Generator: Adobe Illustrator 15.0.0, SVG Export Plug-In  -->
<!DOCTYPE svg [
	<!ENTITY ns_flows "http://ns.adobe.com/Flows/1.0/">
]>
<svg version="1.2" baseProfile="tiny"
	 xmlns="http://www.w3.org/2000/svg" xmlns:xlink="http://www.w3.org/1999/xlink" xmlns:a="http://ns.adobe.com/AdobeSVGViewerExtensions/3.0/"
	 x="0px" y="0px" width="548px" height="160px" viewBox="-30 -30 548 160" xml:space="preserve">
<defs>
</defs>
<polygon fill-rule="evenodd" fill="#C60078" points="50,0 100,50 50,100 0,50 50,0 "/>
<path fill-rule="evenodd" fill="#FFFFFF" d="M53.875,30.9990234l5.625,45l-9.5,9.5l-9.5-9.5l5.625-45H53.875L53.875,30.9990234
	L53.875,30.9990234z M45.1875,28.9990234l-4.6875-10h19l-4.6875,10H45.1875L45.1875,28.9990234L45.1875,28.9990234z
	 M55.1425781,59.1416016L50,53.9990234l-5.1425781,5.1425781l-0.4287109,3.4296875L50,56.9990234l5.5712891,5.5722656
	L55.1425781,59.1416016L55.1425781,59.1416016L55.1425781,59.1416016z M54.2861328,52.2861328L50,47.9990234l-4.2851563,4.2871094
	l-0.4296875,3.4277344L50,50.9990234l4.7138672,4.7148438L54.2861328,52.2861328L54.2861328,52.2861328L54.2861328,52.2861328z"/>
<path fill="#C60078" d="M125,40.9990234h11.859375l13.1445313,21.140625l13.1445313-21.140625h11.8544922v50.0019531h-10.9287109
	V58.3544922l-14.0703125,21.3613281h-0.2900391l-13.9248047-21.1464844v32.4316406H125V40.9990234z"/>
<path fill="#C60078" d="M204.1777344,40.6435547h10.1425781l21.4335938,50.3574219h-11.4990234l-4.5712891-11.2128906h-21.1484375
	l-4.5722656,11.2128906H182.75L204.1777344,40.6435547z M215.7509766,70.0732422l-6.6416016-16.2148438l-6.6425781,16.2148438
	H215.7509766z"/>
<path fill="#C60078" d="M248.7070313,51.1416016h-15.2158203V40.9990234h41.4355469v10.1425781h-15.2158203v39.859375h-11.0039063
	V51.1416016z"/>
<path fill="#C60078" d="M283.3779297,40.9990234h10.9980469v19.7851563h20.2871094V40.9990234h11.0048828v50.0019531h-11.0048828
	V70.9287109h-20.2871094v20.0722656h-10.9980469V40.9990234z"/>
<path fill="#C60078" d="M334.2646484,83.7119141l6.5029297-7.78125c4.5009766,3.7109375,9.2119141,6.0722656,14.9296875,6.0722656
	c4.4951172,0,7.2177734-1.7851563,7.2177734-4.7167969v-0.1464844c0-2.7851563-1.7216797-4.2109375-10.0732422-6.3574219
	c-10.0742188-2.5703125-16.5771484-5.3554688-16.5771484-15.2851563v-0.1386719
	c0-9.0722656,7.2880859-15.0761719,17.5078125-15.0761719c7.28125,0,13.4931641,2.2851563,18.5654297,6.3574219
	l-5.7119141,8.2890625c-4.4326172-3.0722656-8.7832031-4.9277344-13-4.9277344s-6.4267578,1.9257813-6.4267578,4.3574219v0.1386719
	c0,3.2871094,2.140625,4.3574219,10.7832031,6.5722656c10.1445313,2.6464844,15.8554688,6.2871094,15.8554688,15v0.1464844
	c0,9.9277344-7.5722656,15.5-18.3564453,15.5C347.9091797,91.7158203,340.2666016,89.0693359,334.2646484,83.7119141z"/>
<path fill="#C60078" d="M381.2246094,66.1416016v-0.1386719c0-14.2148438,11.2138672-25.859375,26.6386719-25.859375
	c15.4316406,0,26.5048828,11.4980469,26.5048828,25.7128906v0.1464844c0,14.2148438-11.2197266,25.8535156-26.6445313,25.8535156
	C392.2929688,91.8564453,381.2246094,80.3564453,381.2246094,66.1416016z M422.8632813,66.1416016v-0.1386719
	c0-8.5742188-6.28125-15.7167969-15.1396484-15.7167969s-15.0058594,6.9980469-15.0058594,15.5703125v0.1464844
	c0,8.5664063,6.2929688,15.7089844,15.1455078,15.7089844C416.7216797,81.7119141,422.8632813,74.7158203,422.8632813,66.1416016z"
	/>
<path fill="#C60078" d="M441.9707031,66.1416016v-0.1386719c0-14.2148438,10.7138672-25.859375,26.0742188-25.859375
	c9.4277344,0,15.0703125,3.140625,19.7109375,7.7109375l-6.9960938,8.0742188
	c-3.8623047-3.5019531-7.7890625-5.6425781-12.7900391-5.6425781c-8.4287109,0-14.5009766,6.9980469-14.5009766,15.5703125
	v0.1464844c0,8.5664063,5.9326172,15.7089844,14.5009766,15.7089844c5.7167969,0,9.2177734-2.2851563,13.1445313-5.8574219
	l7.0019531,7.0722656c-5.1464844,5.5019531-10.8583984,8.9296875-20.5019531,8.9296875
	C452.8994141,91.8564453,441.9707031,80.5029297,441.9707031,66.1416016z"/>
<path fill="#C60078" d="M125,9h8.1728516c4.7705078,0,7.65625,2.828125,7.65625,6.9140625v0.0566406
	c0,4.6289063-3.5996094,7.0292969-8.0849609,7.0292969h-3.34375v6H125V9z M132.8867188,19.0859375
	c2.2001953,0,3.4853516-1.3144531,3.4853516-3.0292969V16c0-1.9707031-1.3710938-3.0292969-3.5712891-3.0292969h-3.4003906
	v6.1152344H132.8867188z"/>
<path fill="#C60078" d="M145.5136719,9h9.1435547c2.5429688,0,4.5146484,0.7148438,5.8291016,2.0292969
	c1.1142578,1.1132813,1.7148438,2.6855469,1.7148438,4.5703125V15.65625c0,3.2294922-1.7431641,5.2578125-4.2861328,6.2011719
	L162.8007813,29h-5.1435547l-4.2861328-6.4003906h-3.4560547V29h-4.4013672V9z M154.3720703,18.7148438
	c2.1425781,0,3.3710938-1.1435547,3.3710938-2.8291016V15.828125c0-1.8847656-1.3144531-2.8574219-3.4570313-2.8574219h-4.3710938
	v5.7441406H154.3720703z"/>
<path fill="#C60078" d="M167.6005859,9h15.0859375v3.9140625h-10.7138672v4.0566406h9.4287109v3.9150391h-9.4287109v4.2001953
	h10.8574219V29h-15.2294922V9z"/>
<path fill="#C60078" d="M186.8007813,26.0859375l2.5996094-3.1152344c1.8007813,1.4863281,3.6855469,2.4296875,5.9716797,2.4296875
	c1.7998047,0,2.8857422-0.7148438,2.8857422-1.8857422v-0.0576172c0-1.1132813-0.6865234-1.6855469-4.0283203-2.5429688
	c-4.0292969-1.0283203-6.6289063-2.1425781-6.6289063-6.1142578v-0.0576172c0-3.6279297,2.9150391-6.0273438,7.0009766-6.0273438
	c2.9130859,0,5.3994141,0.9140625,7.4277344,2.5429688l-2.2851563,3.3134766
	c-1.7714844-1.2275391-3.5146484-1.9716797-5.2011719-1.9716797c-1.6845703,0-2.5703125,0.7714844-2.5703125,1.7441406v0.0566406
	c0,1.3144531,0.8564453,1.7421875,4.3134766,2.6289063c4.0576172,1.0566406,6.3427734,2.5136719,6.3427734,6v0.0566406
	c0,3.9716797-3.0283203,6.1992188-7.3417969,6.1992188C192.2587891,29.2851563,189.2011719,28.2285156,186.8007813,26.0859375z"/>
<path fill="#C60078" d="M207.8867188,9h15.0859375v3.9140625h-10.7148438v4.0566406H221.6875v3.9150391h-9.4296875v4.2001953
	h10.8583984V29h-15.2294922V9z"/>
<path fill="#C60078" d="M228.4589844,9h4.0576172l9.3710938,12.3144531V9h4.3427734v20h-3.7431641l-9.6845703-12.7148438V29
	h-4.34375V9z"/>
<path fill="#C60078" d="M257.1162109,13.0566406h-6.0859375V9h16.5722656v4.0566406h-6.0869141V29h-4.3994141V13.0566406z"/>
<path fill="#C60078" d="M272.4013672,9h15.0859375v3.9140625h-10.7138672v4.0566406h9.4287109v3.9150391h-9.4287109v4.2001953
	h10.8574219V29h-15.2294922V9z"/>
<path fill="#C60078" d="M292.9736328,9h7.8007813c6.2861328,0,10.6289063,4.3144531,10.6289063,9.9433594V19
	c0,5.6289063-4.3427734,10-10.6289063,10h-7.8007813V9z M297.3740234,12.9707031v12.0585938h3.4003906
	c3.6005859,0,6.0283203-2.4296875,6.0283203-5.9726563V19c0-3.5429688-2.4277344-6.0292969-6.0283203-6.0292969H297.3740234z"/>
<path fill="#C60078" d="M326.7451172,9h9.2861328c2.2861328,0,4.0859375,0.6289063,5.2294922,1.7714844
	c0.9130859,0.9140625,1.3710938,2.0283203,1.3710938,3.4003906v0.0566406c0,2.2568359-1.2001953,3.5146484-2.6289063,4.3144531
	c2.3144531,0.8857422,3.7421875,2.2285156,3.7421875,4.9140625v0.0576172c0,3.6572266-2.9707031,5.4853516-7.4853516,5.4853516
	h-9.5146484V9z M338.2597656,14.9140625c0-1.3144531-1.0283203-2.0566406-2.8857422-2.0566406H331.03125v4.2285156h4.0576172
	c1.9423828,0,3.1708984-0.6289063,3.1708984-2.1152344V14.9140625z M336.1171875,20.7431641H331.03125v4.3994141h5.2285156
	c1.9433594,0,3.1142578-0.6855469,3.1142578-2.171875v-0.0566406
	C339.3740234,21.5722656,338.3740234,20.7431641,336.1171875,20.7431641z"/>
<path fill="#C60078" d="M353.5742188,21.1142578L345.8876953,9h5.1435547l4.7714844,8.0292969L360.6591797,9h5.0009766
	l-7.6865234,12.0292969V29h-4.3994141V21.1142578z"/>
</svg>
