<?xml version="1.0" encoding="utf-8"?>
<!-- Generator: Adobe Illustrator 15.0.0, SVG Export Plug-In  -->
<!DOCTYPE svg [
	<!ENTITY ns_flows "http://ns.adobe.com/Flows/1.0/">
]>
<svg version="1.2" baseProfile="tiny"
	 xmlns="http://www.w3.org/2000/svg" xmlns:xlink="http://www.w3.org/1999/xlink" xmlns:a="http://ns.adobe.com/AdobeSVGViewerExtensions/3.0/"
	 x="0px" y="0px" width="548px" height="160px" viewBox="-30 -30 548 160" xml:space="preserve">
<defs>
</defs>
<path fill="#FFFFFF" d="M132.5722656,8.8574219h4.0566406L145.2001953,29h-4.6005859l-1.828125-4.4863281h-8.4570313L128.4863281,29
	H124L132.5722656,8.8574219z M137.2001953,20.6279297l-2.6572266-6.4853516l-2.65625,6.4853516H137.2001953z"/>
<path fill="#FFFFFF" d="M149.7138672,9h15.2294922v4h-10.8291016v4.2568359h9.5419922v4h-9.5419922V29h-4.4003906V9z"/>
<path fill="#FFFFFF" d="M169.8847656,9h15.2294922v4h-10.8291016v4.2568359h9.5429688v4h-9.5429688V29h-4.4003906V9z"/>
<path fill="#FFFFFF" d="M190.2568359,9h4.4013672v20h-4.4013672V9z"/>
<path fill="#FFFFFF" d="M201.0849609,9h4.4003906v16h9.9716797v4h-14.3720703V9z"/>
<path fill="#FFFFFF" d="M220.3994141,9h4.4003906v20h-4.4003906V9z"/>
<path fill="#FFFFFF" d="M238.0859375,8.8574219h4.0566406L250.7148438,29h-4.6015625l-1.828125-4.4863281h-8.4560547L234,29
	h-4.4863281L238.0859375,8.8574219z M242.7148438,20.6279297l-2.6582031-6.4853516l-2.65625,6.4853516H242.7148438z"/>
<path fill="#FFFFFF" d="M257.3134766,13.0566406h-6.0859375V9h16.5722656v4.0566406h-6.0869141V29h-4.3994141V13.0566406z"/>
<path fill="#FFFFFF" d="M272.5986328,9h15.0859375v3.9140625h-10.7138672v4.0566406h9.4287109v3.9150391h-9.4287109v4.2001953
	h10.8574219V29h-15.2294922V9z"/>
<path fill="#FFFFFF" d="M293.1708984,9h7.7998047c6.2861328,0,10.6289063,4.3144531,10.6289063,9.9423828V19
	c0,5.6279297-4.3427734,10-10.6289063,10h-7.7998047V9z M297.5712891,12.9716797v12.0566406h3.3994141
	c3.6005859,0,6.0292969-2.4287109,6.0292969-5.9716797V19c0-3.5429688-2.4287109-6.0283203-6.0292969-6.0283203H297.5712891z"/>
<path fill="#FFFFFF" d="M325.3994141,9h4.7138672l4.1425781,13.5429688l4.4863281-13.5996094h3.7714844l4.4853516,13.5996094
	L351.1425781,9h4.5996094l-6.828125,20.1425781h-3.8291016l-4.5136719-13.0859375l-4.5146484,13.0859375h-3.828125L325.3994141,9z"
	/>
<path fill="#FFFFFF" d="M360.6269531,9h4.4003906v20h-4.4003906V9z"/>
<path fill="#FFFFFF" d="M376.1142578,13.0566406h-6.0859375V9h16.5712891v4.0566406h-6.0859375V29h-4.3994141V13.0566406z"/>
<path fill="#FFFFFF" d="M391.3994141,9h4.4003906v7.9140625h8.1142578V9h4.3994141v20h-4.3994141v-8.0292969h-8.1142578V29
	h-4.4003906V9z"/>
<polygon fill-rule="evenodd" fill="#FFFFFF" points="50,0 100,50 50,100 0,50 50,0 "/>
<path fill-rule="evenodd" fill="#C60078" d="M53.875,30.9990234l5.625,45l-9.5,9.5l-9.5-9.5l5.625-45H53.875L53.875,30.9990234
	L53.875,30.9990234z M45.1875,28.9990234l-4.6875-10h19l-4.6875,10H45.1875L45.1875,28.9990234L45.1875,28.9990234z
	 M55.1425781,59.1416016L50,53.9990234l-5.1425781,5.1425781l-0.4287109,3.4296875L50,56.9990234l5.5712891,5.5722656
	L55.1425781,59.1416016L55.1425781,59.1416016L55.1425781,59.1416016z M54.2861328,52.2861328L50,47.9990234l-4.2851563,4.2871094
	l-0.4296875,3.4277344L50,50.9990234l4.7138672,4.7148438L54.2861328,52.2861328L54.2861328,52.2861328L54.2861328,52.2861328z"/>
<path fill="#FFFFFF" d="M125,40.9990234h11.859375l13.1445313,21.140625l13.1445313-21.140625h11.8544922v50.0019531h-10.9287109
	V58.3544922l-14.0703125,21.3613281h-0.2900391l-13.9248047-21.1464844v32.4316406H125V40.9990234z"/>
<path fill="#FFFFFF" d="M204.1777344,40.6435547h10.1425781l21.4335938,50.3574219h-11.4990234l-4.5712891-11.2128906h-21.1484375
	l-4.5722656,11.2128906H182.75L204.1777344,40.6435547z M215.7509766,70.0732422l-6.6416016-16.2148438l-6.6425781,16.2148438
	H215.7509766z"/>
<path fill="#FFFFFF" d="M248.7070313,51.1416016h-15.2158203V40.9990234h41.4355469v10.1425781h-15.2158203v39.859375h-11.0039063
	V51.1416016z"/>
<path fill="#FFFFFF" d="M283.3779297,40.9990234h10.9980469v19.7851563h20.2871094V40.9990234h11.0048828v50.0019531h-11.0048828
	V70.9287109h-20.2871094v20.0722656h-10.9980469V40.9990234z"/>
<path fill="#FFFFFF" d="M334.2646484,83.7119141l6.5029297-7.78125c4.5009766,3.7109375,9.2119141,6.0722656,14.9296875,6.0722656
	c4.4951172,0,7.2177734-1.7851563,7.2177734-4.7167969v-0.1464844c0-2.7851563-1.7216797-4.2109375-10.0732422-6.3574219
	c-10.0742188-2.5703125-16.5771484-5.3554688-16.5771484-15.2851563v-0.1386719
	c0-9.0722656,7.2880859-15.0761719,17.5078125-15.0761719c7.28125,0,13.4931641,2.2851563,18.5654297,6.3574219
	l-5.7119141,8.2890625c-4.4326172-3.0722656-8.7832031-4.9277344-13-4.9277344s-6.4267578,1.9257813-6.4267578,4.3574219v0.1386719
	c0,3.2871094,2.140625,4.3574219,10.7832031,6.5722656c10.1445313,2.6464844,15.8554688,6.2871094,15.8554688,15v0.1464844
	c0,9.9277344-7.5722656,15.5-18.3564453,15.5C347.9091797,91.7158203,340.2666016,89.0693359,334.2646484,83.7119141z"/>
<path fill="#FFFFFF" d="M381.2246094,66.1416016v-0.1386719c0-14.2148438,11.2138672-25.859375,26.6386719-25.859375
	c15.4316406,0,26.5048828,11.4980469,26.5048828,25.7128906v0.1464844c0,14.2148438-11.2197266,25.8535156-26.6445313,25.8535156
	C392.2929688,91.8564453,381.2246094,80.3564453,381.2246094,66.1416016z M422.8632813,66.1416016v-0.1386719
	c0-8.5742188-6.28125-15.7167969-15.1396484-15.7167969s-15.0058594,6.9980469-15.0058594,15.5703125v0.1464844
	c0,8.5664063,6.2929688,15.7089844,15.1455078,15.7089844C416.7216797,81.7119141,422.8632813,74.7158203,422.8632813,66.1416016z"
	/>
<path fill="#FFFFFF" d="M441.9707031,66.1416016v-0.1386719c0-14.2148438,10.7138672-25.859375,26.0742188-25.859375
	c9.4277344,0,15.0703125,3.140625,19.7109375,7.7109375l-6.9960938,8.0742188
	c-3.8623047-3.5019531-7.7890625-5.6425781-12.7900391-5.6425781c-8.4287109,0-14.5009766,6.9980469-14.5009766,15.5703125
	v0.1464844c0,8.5664063,5.9326172,15.7089844,14.5009766,15.7089844c5.7167969,0,9.2177734-2.2851563,13.1445313-5.8574219
	l7.0019531,7.0722656c-5.1464844,5.5019531-10.8583984,8.9296875-20.5019531,8.9296875
	C452.8994141,91.8564453,441.9707031,80.5029297,441.9707031,66.1416016z"/>
</svg>
